<?xml version="1.0" encoding="utf-8"?>
<!-- Generator: Adobe Illustrator 26.1.0, SVG Export Plug-In . SVG Version: 6.00 Build 0)  -->
<svg version="1.1" id="Layer_1" xmlns="http://www.w3.org/2000/svg" xmlns:xlink="http://www.w3.org/1999/xlink" x="0px" y="0px"
	 viewBox="0 0 640 480" style="enable-background:new 0 0 640 480;" xml:space="preserve">
<style type="text/css">
	.st0{fill:#FFFFFF;}
</style>
<g>
	<g>
		<g>
			<g>
				<path class="st0" d="M376.16,255.63h3.57v5.53h-3.57v13.68h-5.76v-13.68h-2.57v-5.53h2.57c0-5.38,2.96-8.61,9.34-8.22v5.53
					C377.58,252.75,376.16,253.4,376.16,255.63z"/>
				<path class="st0" d="M381.84,265.23c0-5.72,4.53-10.14,10.18-10.14c5.65,0,10.18,4.42,10.18,10.14s-4.53,10.14-10.18,10.14
					C386.38,275.38,381.84,270.96,381.84,265.23z M396.45,265.23c0-2.73-1.92-4.53-4.42-4.53c-2.5,0-4.42,1.81-4.42,4.53
					s1.92,4.53,4.42,4.53C394.52,269.77,396.45,267.96,396.45,265.23z"/>
				<path class="st0" d="M418.54,255.25v6.53c-2.38-0.38-5.76,0.58-5.76,4.38v8.68h-5.76v-19.21h5.76v3.42
					C413.54,256.47,416.12,255.25,418.54,255.25z"/>
				<path class="st0" d="M451.58,263.04v11.8h-5.76v-11.3c0-1.92-0.92-3.15-2.77-3.15c-1.92,0-3,1.34-3,3.61v10.83h-5.76v-11.3
					c0-1.92-0.92-3.15-2.77-3.15c-1.92,0-3,1.34-3,3.61v10.83h-5.76v-19.21h5.76v1.77c0.88-1.31,2.58-2.31,5.15-2.31
					c2.27,0,3.96,0.92,5.03,2.54c1.08-1.54,2.84-2.54,5.57-2.54C448.7,255.09,451.58,258.24,451.58,263.04z"/>
				<path class="st0" d="M476.78,255.63v19.21h-5.76v-1.81c-1.27,1.46-3.15,2.34-5.73,2.34c-5.03,0-9.18-4.42-9.18-10.14
					s4.15-10.14,9.18-10.14c2.58,0,4.46,0.88,5.73,2.34v-1.81H476.78z M471.02,265.23c0-2.88-1.92-4.69-4.57-4.69
					c-2.65,0-4.57,1.81-4.57,4.69s1.92,4.69,4.57,4.69C469.1,269.92,471.02,268.12,471.02,265.23z"/>
				<path class="st0" d="M489.85,261.16v6.8c0,1.65,1.42,1.81,3.96,1.65v5.23c-7.53,0.77-9.72-1.5-9.72-6.88v-6.8h-3.07v-5.53h3.07
					v-3.65l5.76-1.73v5.38h3.96v5.53H489.85z"/>
				<path class="st0" d="M498.03,250.48c0-1.88,1.58-3.46,3.46-3.46s3.46,1.58,3.46,3.46s-1.58,3.46-3.46,3.46
					S498.03,252.36,498.03,250.48z M498.61,255.63h5.76v19.21h-5.76V255.63z"/>
				<path class="st0" d="M528.77,255.63l-7.11,19.21h-6.53l-7.11-19.21h6.38l4,12.18l4-12.18H528.77z"/>
				<path class="st0" d="M541.41,270.23c1.58,0,2.92-0.62,3.69-1.46l4.61,2.65c-1.88,2.61-4.73,3.96-8.38,3.96
					c-6.57,0-10.64-4.42-10.64-10.14s4.15-10.14,10.22-10.14c5.61,0,9.76,4.34,9.76,10.14c0,0.81-0.08,1.58-0.23,2.31H536.8
					C537.53,269.54,539.3,270.23,541.41,270.23z M544.94,263.24c-0.62-2.23-2.34-3.04-4.07-3.04c-2.19,0-3.65,1.08-4.19,3.04H544.94
					z"/>
			</g>
		</g>
	</g>
</g>
<path class="st0" d="M591.32,262.86c0-0.02-0.01-0.03-0.01-0.05c0-0.02,0-0.03,0-0.05c-0.18-2.77-1.13-5.37-2.73-7.57
	c0.13-0.14,0.28-0.3,0.49-0.53c0,0,1.05-1.1,1.16-1.62c0.13-0.62,0.09-1.49-0.78-2.25c-1.88-1.64-3.27-0.19-4,0.49
	c-0.15,0.14-0.3,0.29-0.45,0.43c-2.59-1.78-5.67-2.68-8.87-2.53l0,0c0,0,0,0,0,0c-3.88,0.18-7.45,1.86-10.06,4.73c0,0,0,0,0,0
	c-2.7,2.96-3.94,6.74-3.76,10.45c0.17,3.71,1.76,7.36,4.72,10.06c0,0,0,0,0,0c2.96,2.69,6.74,3.93,10.46,3.76
	c3.44-0.16,6.82-1.55,9.45-4.11c0.19-0.13,0.37-0.27,0.53-0.45c2.36-2.59,3.73-5.84,3.86-9.29
	C591.36,263.85,591.35,263.36,591.32,262.86z M570.95,270.14C570.95,270.14,570.95,270.14,570.95,270.14
	c-1.78-1.62-2.73-3.8-2.83-6.03c-0.1-2.23,0.64-4.49,2.25-6.26c0,0,0,0,0,0c1.57-1.72,3.71-2.73,6.03-2.83
	c1.64-0.08,3.23,0.31,4.63,1.09c-2.4,2.91-4.4,5.77-4.79,6.65l-1.74-2.09c0,0-1.82-2.2-3.79-0.41c-1.96,1.79,0.11,3.92,0.11,3.92
	l3.8,4.48c0,0,0.71,1.07,2.03,1.03c1.33-0.04,1.9-0.76,2.01-0.94c1.75-2.82,3.08-5.44,5.9-8.98c0.45,0.88,0.74,1.84,0.87,2.84
	c0,0.02-0.01,0.03-0.01,0.05c-0.03,0.19-0.03,0.39-0.02,0.59c0.02,0.3,0.02,0.6,0.01,0.89c-0.06,1.77-0.65,3.46-1.71,4.88
	c-0.14,0.18-0.29,0.36-0.44,0.54c-0.01,0.01-0.01,0.01-0.02,0.02C580.02,273.11,574.5,273.37,570.95,270.14z"/>
<g>
	<path class="st0" d="M210.26,220.26v14.28h-39.43v-64.92h38.99v14.28h-24.65v10.76h22.4v14.1h-22.4v11.5H210.26z"/>
	<path class="st0" d="M245.04,234.55l-8.34-12.24l-8.33,12.24h-15.41L229,210.99l-15.5-22.82h15.42l7.8,11.5l7.8-11.5h15.41
		l-15.51,22.82l16.04,23.56H245.04z"/>
	<path class="st0" d="M308.23,188.17v46.37h-13.44v-4.36c-2.96,3.52-7.35,5.66-13.35,5.66c-11.74,0-21.42-10.66-21.42-24.48
		c0-13.82,9.68-24.48,21.42-24.48c6,0,10.4,2.13,13.35,5.66v-4.36H308.23z M294.79,211.36c0-6.96-4.48-11.32-10.66-11.32
		c-6.18,0-10.67,4.36-10.67,11.32c0,6.96,4.48,11.31,10.67,11.31C290.31,222.68,294.79,218.32,294.79,211.36z"/>
	<path class="st0" d="M385.32,206.07v28.47h-13.44v-27.27c0-4.64-2.15-7.61-6.45-7.61c-4.48,0-6.99,3.25-6.99,8.72v26.15h-13.44
		v-27.27c0-4.64-2.15-7.61-6.45-7.61c-4.48,0-6.99,3.25-6.99,8.72v26.15H318.1v-46.37h13.44v4.27c2.06-3.15,6.01-5.57,12.01-5.57
		c5.29,0,9.23,2.23,11.74,6.12c2.51-3.71,6.63-6.12,13-6.12C378.59,186.88,385.32,194.48,385.32,206.07z"/>
	<path class="st0" d="M392.32,211.36c0-13.82,10.13-24.48,23.75-24.48c8.69,0,16.4,4.73,20.25,11.87l-11.74,7.05
		c-1.53-3.25-4.75-5.19-8.69-5.19c-5.83,0-10.13,4.36-10.13,10.76c0,6.4,4.3,10.76,10.13,10.76c3.94,0,7.26-1.95,8.69-5.19
		l11.74,6.96c-3.85,7.23-11.47,11.96-20.25,11.96C402.45,235.85,392.32,225.18,392.32,211.36z"/>
	<path class="st0" d="M469.04,187.25v15.77c-5.56-0.93-13.44,1.39-13.44,10.57v20.96h-13.44v-46.37h13.44v8.25
		C457.39,190.22,463.4,187.25,469.04,187.25z"/>
	<path class="st0" d="M519.95,188.17v46.37h-13.44v-4.36c-2.96,3.52-7.35,5.66-13.35,5.66c-11.74,0-21.42-10.66-21.42-24.48
		c0-13.82,9.68-24.48,21.42-24.48c6,0,10.4,2.13,13.35,5.66v-4.36H519.95z M506.51,211.36c0-6.96-4.48-11.32-10.66-11.32
		c-6.18,0-10.67,4.36-10.67,11.32c0,6.96,4.48,11.31,10.67,11.31C502.03,222.68,506.51,218.32,506.51,211.36z"/>
	<path class="st0" d="M546.13,188.17h8.33v13.36h-8.33v33.02h-13.44v-33.02h-6.01v-13.36h6.01c0-12.98,6.9-20.77,21.78-19.85v13.36
		C549.45,181.22,546.13,182.8,546.13,188.17z"/>
	<path class="st0" d="M582.09,201.53v16.42c0,3.99,3.32,4.36,9.23,3.99v12.61c-17.57,1.86-22.68-3.62-22.68-16.6v-16.42h-7.17
		v-13.36h7.17v-8.81l13.44-4.17v12.98h9.23v13.36H582.09z"/>
</g>
<g>
	<path class="st0" d="M70.84,191.44l0.08,0.06l0.68,0.38l18.76,11.13l0.04,0.01c0.14,0.08,0.29,0.12,0.44,0.18v-40.85l-0.04-0.02
		c-0.03-0.02-0.06-0.03-0.09-0.05l-5.57-3.13l-10.94-6.17c-0.05-0.02-0.1-0.04-0.15-0.06c-0.05-0.02-0.1-0.04-0.15-0.06
		c-0.09-0.03-0.17-0.07-0.26-0.1c0,0-0.01,0.01-0.01,0.01c-0.3-0.09-0.61-0.15-0.94-0.15c-1.87,0-3.39,1.52-3.39,3.39
		c0,0,0,0.01,0,0.01h0l-0.08,32.52c0,0.01,0,0.01,0,0.02C69.21,189.79,69.87,190.85,70.84,191.44z"/>
	<path class="st0" d="M93.74,202.97l0.04-0.01l16.75-9.99l2.74-1.54c0-0.01,0.01-0.01,0.01-0.02c0.93-0.59,1.56-1.61,1.58-2.79
		l0.01-0.01l0-0.04c0-0.01,0-0.01,0-0.02c0-0.01,0-0.01,0-0.02l-0.08-32.51c0-0.01,0-0.01,0-0.02c0-0.01,0-0.01,0-0.02v-0.12
		l-0.01,0c-0.07-1.81-1.55-3.25-3.38-3.25c-0.27,0-0.53,0.04-0.78,0.1c0,0,0-0.01,0-0.01c-0.08,0.02-0.15,0.06-0.23,0.08
		c-0.12,0.04-0.24,0.07-0.36,0.13c-0.05,0.02-0.09,0.03-0.14,0.05l-11.3,6.37l-5.35,3.01v40.85
		C93.41,203.13,93.58,203.07,93.74,202.97z"/>
	<path class="st0" d="M147,211.53l0-0.02l-28.36-16.06l-0.02,0.01c-0.48-0.27-1.03-0.43-1.62-0.43c-0.58,0-1.13,0.16-1.6,0.42
		c-0.01,0-0.02,0-0.03,0l-0.25,0.15c0,0,0,0-0.01,0l-1.15,0.7l-17.84,10.58l-0.01,0.02c-0.18,0.11-0.34,0.26-0.49,0.41l34.94,20.07
		l3.53-2.15l13.14-7.96c0.16-0.12,0.3-0.24,0.43-0.37c0.05-0.05,0.09-0.1,0.14-0.14c0.03-0.04,0.06-0.07,0.09-0.11
		c0.51-0.59,0.82-1.35,0.82-2.19C148.71,213.2,148.02,212.11,147,211.53z"/>
	<path class="st0" d="M94.5,209.44c-0.02,0.12-0.05,0.23-0.05,0.36l0,0v4.9l0.01,0l0,17.52l0,0.01c0.01,1.25,0.7,2.32,1.71,2.9
		l0.02,0.03l28.36,15.87c0,0,0.02,0,0.03,0c0.49,0.28,1.06,0.45,1.67,0.45c1.76,0,3.19-1.35,3.36-3.07
		c0.01-0.05,0.03-0.09,0.03-0.14v-0.15c0-0.01,0-0.02,0-0.03c0-0.01,0-0.02,0-0.03l-0.01-16.01l0.06-2.4l-0.14-0.08L94.5,209.44z"/>
	<path class="st0" d="M88.59,206.9l-0.01-0.02L70.74,196.3l-1.15-0.7c0,0,0,0-0.01,0l-0.25-0.15c-0.01,0-0.02,0-0.03,0
		c-0.48-0.26-1.02-0.42-1.6-0.42c-0.59,0-1.14,0.16-1.62,0.43l-0.02-0.01l-28.36,16.06l0,0.02c-1.02,0.59-1.71,1.67-1.71,2.93
		c0,0.84,0.32,1.6,0.82,2.19c0.03,0.04,0.06,0.07,0.09,0.11c0.05,0.05,0.09,0.1,0.14,0.14c0.13,0.13,0.26,0.25,0.43,0.37l13.14,7.96
		l3.17,1.93l35.3-19.85C88.92,207.16,88.77,207.01,88.59,206.9z"/>
	<path class="st0" d="M55.06,232.05l-0.01,16.01c0,0.01,0,0.02,0,0.03c0,0.01,0,0.02,0,0.03v0.15c0,0.05,0.02,0.1,0.03,0.14
		c0.16,1.72,1.59,3.07,3.36,3.07c0.61,0,1.17-0.17,1.67-0.45c0.01,0,0.03,0,0.03,0l28.36-15.87l0.02-0.03
		c1.01-0.58,1.7-1.65,1.71-2.9l0-0.01l0-17.52l0.01,0v-4.9l0,0c0-0.12-0.03-0.24-0.05-0.36l-35.21,19.8L55.06,232.05z"/>
</g>
</svg>
