<?xml version="1.0" encoding="UTF-8"?><svg id="a" xmlns="http://www.w3.org/2000/svg" viewBox="0 0 152.67 28.33"><path d="M70.23,16.54c0-4.15,3.15-7.36,7.39-7.36,2.7,0,5.1,1.42,6.3,3.57l-3.65,2.12c-.47-.98-1.48-1.56-2.7-1.56-1.81,0-3.15,1.31-3.15,3.24s1.34,3.23,3.15,3.23c1.23,0,2.26-.59,2.7-1.56l3.65,2.09c-1.2,2.18-3.57,3.6-6.3,3.6-4.24,0-7.39-3.21-7.39-7.36Z" fill="#fff"/><path d="M98.97,14.95v8.56h-4.18v-7.95c0-1.73-1.09-2.54-2.43-2.54-1.53,0-2.59,.89-2.59,2.87v7.61h-4.18V4.99h4.18v5.89c.75-1.03,2.15-1.7,3.99-1.7,2.82,0,5.21,2.01,5.21,5.77Z" fill="#fff"/><path d="M101.15,16.54c0-4.15,3.29-7.36,7.39-7.36s7.39,3.21,7.39,7.36-3.29,7.36-7.39,7.36-7.39-3.21-7.39-7.36Zm10.6,0c0-1.98-1.39-3.29-3.21-3.29s-3.21,1.31-3.21,3.29,1.39,3.29,3.21,3.29,3.21-1.31,3.21-3.29Z" fill="#fff"/><path d="M117.6,16.54c0-4.15,3.29-7.36,7.39-7.36s7.39,3.21,7.39,7.36-3.29,7.36-7.39,7.36-7.39-3.21-7.39-7.36Zm10.6,0c0-1.98-1.39-3.29-3.21-3.29s-3.21,1.31-3.21,3.29,1.39,3.29,3.21,3.29,3.21-1.31,3.21-3.29Z" fill="#fff"/><path d="M134.75,4.99h4.18V23.51h-4.18V4.99Z" fill="#fff"/><path d="M152.67,19.33c0,3.21-2.79,4.57-5.8,4.57-2.79,0-4.91-1.06-6-3.32l3.63-2.06c.36,1.06,1.14,1.65,2.37,1.65,1,0,1.51-.31,1.51-.87,0-1.53-6.86-.73-6.86-5.55,0-3.04,2.57-4.57,5.47-4.57,2.26,0,4.27,1,5.44,2.98l-3.57,1.92c-.39-.73-.95-1.23-1.87-1.23-.73,0-1.17,.28-1.17,.78,0,1.59,6.86,.53,6.86,5.69Z" fill="#fff"/><path d="M68.59,19.33c0,3.21-2.79,4.57-5.8,4.57-2.79,0-4.91-1.06-6-3.32l3.63-2.06c.36,1.06,1.14,1.65,2.37,1.65,1,0,1.51-.31,1.51-.87,0-1.53-6.86-.73-6.86-5.55,0-3.04,2.57-4.57,5.47-4.57,2.26,0,4.27,1,5.44,2.98l-3.57,1.92c-.39-.73-.95-1.23-1.87-1.23-.73,0-1.17,.28-1.17,.78,0,1.59,6.86,.53,6.86,5.69Z" fill="#fff"/><polygon points="52.19 12.08 47.67 12.08 47.67 16.26 43.6 16.26 49.36 4.89 44.56 4.89 38.8 16.26 38.8 20.39 47.67 20.39 47.67 23.51 52.19 23.51 52.19 20.39 54.14 20.39 54.14 16.26 52.19 16.26 52.19 12.08" fill="#fff"/><path d="M9.99,11.13l.02,.02,.19,.11,5.38,3.19h.01s.08,.04,.12,.05V2.79h-.01l-.02-.02-1.6-.9L10.95,.1s-.03-.01-.04-.02c-.01,0-.03-.01-.04-.02-.02,0-.05-.02-.07-.03h0c-.09-.02-.18-.04-.27-.04-.54,0-.97,.43-.97,.97h0l-.02,9.32h0c0,.36,.19,.66,.47,.83Z" fill="#fff"/><path d="M16.55,14.43h.01l4.8-2.86,.79-.44h0c.27-.17,.45-.47,.45-.81h0v-.02h0l-.02-9.32h0v-.04h0c-.02-.52-.44-.93-.97-.93-.08,0-.15,.01-.22,.03h0s-.04,.01-.07,.02c-.03,.01-.07,.02-.1,.04-.01,0-.03,0-.04,.01l-3.24,1.82-1.53,.86V14.49s.1-.04,.15-.06Z" fill="#fff"/><path d="M31.82,16.88h0l-8.13-4.61h0c-.14-.07-.3-.12-.46-.12s-.32,.05-.46,.12h0l-.07,.04h0l-.33,.2-5.11,3.03h0c-.05,.04-.1,.08-.14,.12l10.02,5.75,1.01-.62,3.77-2.28s.09-.07,.12-.11c.01-.01,.03-.03,.04-.04l.03-.03c.14-.17,.24-.39,.24-.63,0-.36-.2-.67-.49-.84Z" fill="#fff"/><path d="M16.77,16.28s-.01,.07-.01,.1h0v1.41h0v5.02h0c0,.36,.2,.67,.49,.83h0l8.13,4.56h0c.14,.08,.3,.13,.48,.13,.51,0,.92-.39,.96-.88,0-.01,0-.03,0-.04v-.04h0v-4.6l.02-.69-.04-.02-10.05-5.77Z" fill="#fff"/><path d="M15.08,15.56h0l-5.11-3.04-.33-.2h0l-.07-.05h0c-.14-.07-.29-.12-.46-.12s-.33,.05-.46,.12h0L.49,16.88h0c-.29,.17-.49,.48-.49,.84,0,.24,.09,.46,.24,.63l.03,.03s.03,.03,.04,.04c.04,.04,.08,.07,.12,.11l3.77,2.28,.91,.55,10.12-5.69s-.09-.09-.14-.12Z" fill="#fff"/><path d="M5.47,22.76v4.59h0v.06s0,.03,0,.04c.05,.49,.46,.88,.96,.88,.17,0,.34-.05,.48-.13h0l8.13-4.55h0c.29-.17,.49-.48,.49-.84h0v-5.02h0v-1.4h0s0-.07-.01-.1l-10.09,5.67,.02,.81Z" fill="#fff"/></svg>