<?xml version="1.0" encoding="UTF-8"?>
<svg id="Layer_2" data-name="Layer 2" xmlns="http://www.w3.org/2000/svg" viewBox="0 0 263.91 104.71">
  <defs>
    <style>
      .cls-1 {
        fill: #fff;
      }
    </style>
  </defs>
  <g id="Layer_1-2" data-name="Layer 1">
    <g>
      <g>
        <path class="cls-1" d="m113.76,3.82h8.15v21.45c0,.65.29.94.94.94h1.71c.81,0,.9-.53.9-.94V3.82h8.19c.81,0,.9-.53.9-.94v-1.43c0-.49-.11-.94-.9-.94h-19.89c-.63,0-.94.31-.94.94v1.43c0,.65.29.94.94.94Z"/>
        <path class="cls-1" d="m140.21,26.2h1.71c.81,0,.9-.53.9-.94v-10.33h13.31v10.33c0,.4.09.94.9.94h1.71c.63,0,.94-.31.94-.94V1.46c0-.63-.31-.94-.94-.94h-1.71c-.81,0-.9.53-.9.94v10.25h-13.31V1.46c0-.4-.09-.94-.9-.94h-1.71c-.63,0-.94.31-.94.94v23.81c0,.63.31.94.94.94Z"/>
        <path class="cls-1" d="m168.41,26.2h15.86c.81,0,.9-.53.9-.94v-1.32c0-.4-.09-.94-.9-.94h-13.25v-8.18h12.61c.63,0,.94-.31.94-.94v-1.32c0-.63-.31-.94-.94-.94h-12.61V3.71h13.25c.6,0,.9-.32.9-.94v-1.32c0-.62-.3-.94-.9-.94h-15.86c-.63,0-.94.31-.94.94v23.81c0,.63.31.94.94.94Z"/>
        <path class="cls-1" d="m121.91,63.56c0,.65.29.94.94.94h1.71c.81,0,.9-.53.9-.94v-21.45h8.19c.81,0,.9-.53.9-.94v-1.43c0-.49-.11-.94-.9-.94h-19.89c-.63,0-.94.31-.94.94v1.43c0,.65.29.94.94.94h8.15v21.45Z"/>
        <path class="cls-1" d="m159.18,53.87v-14.11c0-.4-.09-.94-.9-.94h-1.71c-.63,0-.94.31-.94.94v13.94c0,5.26-2.39,8.04-6.9,8.04s-6.91-2.78-6.91-8.04v-13.94c0-.63-.31-.94-.94-.94h-1.68c-.65,0-.94.29-.94.94v14.11c0,6.84,4.01,11.1,10.45,11.1s10.45-4.25,10.45-11.1Z"/>
        <path class="cls-1" d="m168.87,64.5c.81,0,.9-.53.9-.94v-23.81c0-.4-.09-.94-.9-.94h-1.71c-.63,0-.94.31-.94.94v23.81c0,.63.31.94.94.94h1.71Z"/>
        <path class="cls-1" d="m174.49,39.76v1.43c0,.65.29.94.94.94h8.15v21.45c0,.65.29.94.94.94h1.71c.81,0,.9-.53.9-.94v-21.45h8.19c.81,0,.9-.53.9-.94v-1.43c0-.49-.11-.94-.9-.94h-19.89c-.63,0-.94.31-.94.94Z"/>
        <path class="cls-1" d="m201.88,64.5h1.71c.81,0,.9-.53.9-.94v-23.81c0-.4-.09-.94-.9-.94h-1.71c-.63,0-.94.31-.94.94v23.81c0,.63.31.94.94.94Z"/>
        <path class="cls-1" d="m223.76,64.97c7.24,0,13.13-5.97,13.13-13.31s-5.89-13.31-13.13-13.31-13.13,5.97-13.13,13.31,5.89,13.31,13.13,13.31Zm0-23.38c5.17,0,9.54,4.61,9.54,10.08,0,4.87-3.83,10.08-9.54,10.08-5.08,0-9.54-4.71-9.54-10.08s4.37-10.08,9.54-10.08Z"/>
        <path class="cls-1" d="m263.01,38.82h-1.71c-.65,0-.94.29-.94.94v18.02l-15.96-19.04c-.19-.23-.39-.39-.75-.39h-.18c-.17,0-.69,0-.69.65v24.56c0,.63.31.94.94.94h1.68c.63,0,.94-.31.94-.94v-18.16l15.95,19.17c.2.2.44.39.79.39h.18c.43,0,.65-.22.65-.65v-24.56c0-.66-.27-.94-.9-.94Z"/>
        <path class="cls-1" d="m137.02,98.12l-1.08-1.15c-.17-.17-.36-.32-.65-.32-.17,0-.42.05-.66.29-1.92,2-4.49,3.09-7.26,3.09-5.17,0-9.54-4.61-9.54-10.08s4.37-10.08,9.54-10.08c2.77,0,5.38,1.1,7.19,3.03.47.47,1.01.38,1.35-.05l1.04-1.14c.29-.32.55-.76.02-1.29-2.33-2.33-6.01-3.78-9.6-3.78-7.24,0-13.13,5.97-13.13,13.31s5.89,13.31,13.13,13.31c3.59,0,7.27-1.45,9.6-3.78.45-.45.47-.84.06-1.34,0,0-.01-.01-.02-.02Z"/>
        <path class="cls-1" d="m159.71,77.12h-15.86c-.63,0-.94.31-.94.94v23.81c0,.63.31.94.94.94h15.86c.81,0,.9-.53.9-.94v-1.32c0-.4-.09-.94-.9-.94h-13.25v-8.18h12.61c.63,0,.94-.31.94-.94v-1.32c0-.63-.31-.94-.94-.94h-12.61v-7.93h13.25c.6,0,.9-.32.9-.94v-1.32c0-.62-.3-.94-.9-.94Z"/>
        <path class="cls-1" d="m187.37,77.12h-1.71c-.65,0-.94.29-.94.94v18.03l-15.96-19.04c-.16-.2-.36-.39-.75-.39h-.18c-.17,0-.69,0-.69.65v24.56c0,.63.31.94.94.94h1.68c.63,0,.94-.31.94-.94v-18.16l15.95,19.17c.2.2.44.39.79.39h.18c.43,0,.65-.22.65-.65v-24.56c0-.66-.27-.94-.9-.94Z"/>
        <path class="cls-1" d="m213.78,77.12h-19.89c-.63,0-.94.31-.94.94v1.43c0,.65.29.94.94.94h8.15v21.45c0,.65.29.94.94.94h1.71c.81,0,.9-.53.9-.94v-21.45h8.19c.81,0,.9-.53.9-.94v-1.43c0-.49-.11-.94-.9-.94Z"/>
        <path class="cls-1" d="m232.35,92.55c3.51-1.12,5.37-3.74,5.37-7.59,0-7.29-6.91-7.85-9.03-7.85h-8.48c-.63,0-.94.31-.94.94v23.81c0,.82.45.94.94.94h1.68c.65,0,.94-.29.94-.94v-8.83h5.82l6.45,9.04c.22.31.59.73,1.26.73h1.68c.39,0,.69-.14.83-.39.09-.17.16-.45-.1-.87l-6.4-8.99Zm1.89-7.59c0,3.26-1.93,4.91-5.73,4.91h-5.69v-9.6h5.69c3.8,0,5.73,1.58,5.73,4.69Z"/>
        <path class="cls-1" d="m261.19,77.12h-15.86c-.63,0-.94.31-.94.94v23.81c0,.63.31.94.94.94h15.86c.81,0,.9-.53.9-.94v-1.32c0-.4-.09-.94-.9-.94h-13.25v-8.18h12.61c.63,0,.94-.31.94-.94v-1.32c0-.63-.31-.94-.94-.94h-12.61v-7.93h13.25c.6,0,.9-.32.9-.94v-1.32c0-.62-.3-.94-.9-.94Z"/>
      </g>
      <rect class="cls-1" x="32.23" y=".89" width="25.39" height="90.47" rx="9.47" ry="9.47"/>
      <rect class="cls-1" y=".89" width="25.39" height="90.47" rx="9.47" ry="9.47"/>
      <rect class="cls-1" x="0" y="95.36" width="111.35" height="9.35" rx="3.09" ry="3.09"/>
      <rect class="cls-1" x="74.6" y="-.61" width="25.39" height="90.47" rx="9.47" ry="9.47" transform="translate(-9.21 27.35) rotate(-16.93)"/>
    </g>
  </g>
</svg>