<?xml version="1.0" encoding="UTF-8"?><svg id="a" xmlns="http://www.w3.org/2000/svg" viewBox="0 0 236.22 26.96"><path d="M47.59,18.07v3.87h-11.05V4.36h10.92v3.87h-6.91v2.91h6.28v3.82h-6.28v3.11h7.03Z" fill="#fff"/><path d="M58.2,21.93l-2.33-3.31-2.33,3.31h-4.32l4.49-6.38-4.34-6.18h4.32l2.18,3.11,2.18-3.11h4.32l-4.34,6.18,4.49,6.38h-4.32Z" fill="#fff"/><path d="M75.91,9.38v12.55h-3.77v-1.18c-.83,.95-2.06,1.53-3.74,1.53-3.29,0-6-2.89-6-6.63s2.71-6.63,6-6.63c1.68,0,2.91,.58,3.74,1.53v-1.18h3.77Zm-3.87,6.28c0-1.78-1.26-2.96-2.89-2.96s-2.89,1.18-2.89,2.96,1.26,2.96,2.89,2.96,2.89-1.18,2.89-2.96Z" fill="#fff"/><path d="M97.06,14.23v7.71h-3.77v-7.38c0-1.26-.6-2.06-1.81-2.06s-1.96,.88-1.96,2.36v7.08h-3.77v-7.38c0-1.26-.6-2.06-1.81-2.06s-1.96,.88-1.96,2.36v7.08h-3.77V9.38h3.77v1.16c.58-.85,1.68-1.51,3.36-1.51,1.48,0,2.59,.6,3.29,1.66,.7-1,1.86-1.66,3.64-1.66,2.89,0,4.77,2.06,4.77,5.2Z" fill="#fff"/><path d="M98.95,15.66c0-3.74,2.84-6.63,6.65-6.63,2.44,0,4.6,1.28,5.67,3.21l-3.29,1.91c-.43-.88-1.33-1.41-2.43-1.41-1.63,0-2.84,1.18-2.84,2.91s1.21,2.91,2.84,2.91c1.1,0,2.03-.53,2.43-1.41l3.29,1.88c-1.08,1.96-3.21,3.24-5.67,3.24-3.82,0-6.65-2.89-6.65-6.63Z" fill="#fff"/><path d="M120.7,9.13v4.27c-1.56-.25-3.77,.38-3.77,2.86v5.67h-3.77V9.38h3.77v2.23c.5-1.68,2.18-2.49,3.77-2.49Z" fill="#fff"/><path d="M135.67,9.38v12.55h-3.77v-1.18c-.83,.95-2.06,1.53-3.74,1.53-3.29,0-6-2.89-6-6.63s2.71-6.63,6-6.63c1.68,0,2.91,.58,3.74,1.53v-1.18h3.77Zm-3.87,6.28c0-1.78-1.26-2.96-2.89-2.96s-2.89,1.18-2.89,2.96,1.26,2.96,2.89,2.96,2.89-1.18,2.89-2.96Z" fill="#fff"/><path d="M143,9.38h2.33v3.62h-2.33v8.94h-3.77V13h-1.68v-3.62h1.68c0-3.52,1.93-5.62,6.1-5.37v3.62c-1.41-.13-2.33,.3-2.33,1.76Z" fill="#fff"/><path d="M153,13v4.44c0,1.08,.93,1.18,2.59,1.08v3.41c-4.92,.5-6.35-.98-6.35-4.49v-4.44h-2.01v-3.62h2.01v-2.39l3.77-1.13v3.52h2.59v3.62h-2.59Z" fill="#fff"/><path d="M181.78,13.65c0,5.37-3.74,8.64-8.66,8.64-5.52,0-9.49-4.07-9.49-9.11s4.04-9.17,9.22-9.17c3.36,0,6.2,1.66,7.68,4.02l-3.41,1.96c-.73-1.16-2.31-2.06-4.29-2.06-2.96,0-5.17,2.18-5.17,5.27s2.11,5.17,5.52,5.17c2.33,0,3.87-1.03,4.49-2.71h-4.7v-3.51h8.81v1.51Z" fill="#fff"/><path d="M191.44,9.13v4.27c-1.56-.25-3.77,.38-3.77,2.86v5.67h-3.77V9.38h3.77v2.23c.5-1.68,2.18-2.49,3.77-2.49Z" fill="#fff"/><path d="M192.63,15.66c0-3.74,2.96-6.63,6.65-6.63s6.65,2.89,6.65,6.63-2.96,6.63-6.65,6.63-6.65-2.89-6.65-6.63Zm9.54,0c0-1.78-1.26-2.96-2.89-2.96s-2.89,1.18-2.89,2.96,1.26,2.96,2.89,2.96,2.89-1.18,2.89-2.96Z" fill="#fff"/><path d="M236.22,15.66c0,3.74-2.71,6.63-6,6.63-1.68,0-2.91-.58-3.74-1.53v6.2h-3.77V9.38h3.77v1.18c.83-.95,2.06-1.53,3.74-1.53,3.29,0,6,2.89,6,6.63Zm-3.87,0c0-1.78-1.26-2.96-2.89-2.96s-2.89,1.18-2.89,2.96,1.26,2.96,2.89,2.96,2.89-1.18,2.89-2.96Z" fill="#fff"/><path d="M207.61,15.94v-6.63h4.44v6.99c0,.55,.18,1,.53,1.36,.35,.35,.8,.53,1.36,.53s.98-.18,1.33-.53,.53-.8,.53-1.36v-6.99h4.44v6.63c0,1.88-.59,3.4-1.77,4.57-1.18,1.17-2.69,1.76-4.53,1.76s-3.36-.59-4.54-1.76c-1.19-1.17-1.78-2.69-1.78-4.57Z" fill="#fff"/><path d="M9.27,10.32l.02,.02,.18,.1,4.99,2.96h.01s.08,.03,.12,.05V2.58h-.01l-.02-.02-1.48-.83L10.16,.09s-.03,0-.04-.02c-.01,0-.03,0-.04-.01-.02,0-.05-.02-.07-.03h0c-.08-.02-.16-.04-.25-.04-.5,0-.9,.4-.9,.9h0l-.02,8.65h0c0,.33,.18,.61,.43,.77Z" fill="#fff"/><path d="M15.36,13.39h0l4.46-2.66,.73-.41h0c.25-.16,.41-.43,.42-.75h0v-.02h0l-.02-8.65h0v-.04h0c-.02-.48-.41-.86-.9-.86-.07,0-.14,.01-.21,.03h0s-.04,.01-.06,.02c-.03,.01-.06,.02-.1,.03-.01,0-.02,0-.04,.01l-3,1.69-1.42,.8V13.45s.09-.03,.13-.06Z" fill="#fff"/><path d="M29.53,15.67h0l-7.54-4.28h0c-.13-.07-.27-.11-.43-.11s-.3,.04-.43,.11h0l-.07,.04h0l-.31,.19-4.75,2.81h0s-.09,.07-.13,.11l9.3,5.34,.94-.57,3.5-2.12s.08-.06,.11-.1c.01-.01,.02-.03,.04-.04l.02-.03c.13-.16,.22-.36,.22-.58,0-.33-.18-.62-.45-.78Z" fill="#fff"/><path d="M15.56,15.11s-.01,.06-.01,.1h0v1.3h0v4.66h0c0,.33,.19,.62,.46,.77h0l7.54,4.23h0c.13,.07,.28,.12,.44,.12,.47,0,.85-.36,.89-.82,0-.01,0-.02,0-.04v-.04h0v-4.91l-.02-.02-9.32-5.35Z" fill="#fff"/><path d="M13.99,14.44h0l-4.75-2.82-.31-.19h0l-.07-.04h0c-.13-.07-.27-.11-.43-.11s-.3,.04-.43,.11h0L.45,15.66h0c-.27,.16-.45,.45-.45,.78,0,.22,.08,.43,.22,.58l.02,.03s.02,.03,.04,.04c.03,.03,.07,.07,.11,.1l3.5,2.12,.84,.51,9.39-5.28s-.08-.08-.13-.11Z" fill="#fff"/><path d="M5.07,21.13v4.26h0v.05s0,.03,0,.04c.04,.46,.42,.82,.89,.82,.16,0,.31-.05,.44-.12h0l7.54-4.22h0c.27-.16,.45-.45,.46-.78h0v-4.66h0v-1.3h0s0-.06-.01-.1l-9.36,5.27,.02,.75Z" fill="#fff"/></svg>