<?xml version="1.0" encoding="UTF-8"?><svg id="a" xmlns="http://www.w3.org/2000/svg" viewBox="0 0 159.1 28.32"><g><path d="M49.93,19.38v4.09h-11.3V4.87h11.17v4.09h-7.06v3.08h6.42v4.04h-6.42v3.29h7.19Z" fill="#fff"/><path d="M59.89,23.47l-2.39-3.51-2.39,3.51h-4.42l4.6-6.75-4.44-6.54h4.42l2.23,3.29,2.23-3.29h4.42l-4.44,6.54,4.6,6.75h-4.42Z" fill="#fff"/><path d="M77.99,10.18v13.29h-3.85v-1.25c-.85,1.01-2.11,1.62-3.83,1.62-3.36,0-6.14-3.06-6.14-7.01s2.77-7.01,6.14-7.01c1.72,0,2.98,.61,3.83,1.62v-1.25h3.85Zm-3.85,6.64c0-1.99-1.28-3.24-3.05-3.24s-3.06,1.25-3.06,3.24,1.28,3.24,3.06,3.24,3.05-1.25,3.05-3.24Z" fill="#fff"/><path d="M100.08,15.31v8.16h-3.85v-7.81c0-1.33-.62-2.18-1.85-2.18s-2,.93-2,2.5v7.49h-3.85v-7.81c0-1.33-.62-2.18-1.85-2.18s-2,.93-2,2.5v7.49h-3.85V10.18h3.85v1.22c.59-.9,1.72-1.59,3.44-1.59,1.51,0,2.64,.64,3.36,1.75,.72-1.06,1.9-1.75,3.72-1.75,2.95,0,4.88,2.18,4.88,5.5Z" fill="#fff"/><path d="M102.08,16.83c0-3.96,2.9-7.01,6.8-7.01,2.49,0,4.7,1.36,5.8,3.4l-3.36,2.02c-.44-.93-1.36-1.49-2.49-1.49-1.67,0-2.9,1.25-2.9,3.08s1.23,3.08,2.9,3.08c1.13,0,2.08-.56,2.49-1.49l3.36,1.99c-1.1,2.07-3.29,3.43-5.8,3.43-3.9,0-6.8-3.06-6.8-7.01Z" fill="#fff"/><path d="M124.06,9.92v4.52c-1.59-.27-3.85,.4-3.85,3.03v6h-3.85V10.18h3.85v2.36c.51-1.78,2.23-2.63,3.85-2.63Z" fill="#fff"/><path d="M138.65,10.18v13.29h-3.85v-1.25c-.85,1.01-2.11,1.62-3.83,1.62-3.36,0-6.14-3.06-6.14-7.01s2.77-7.01,6.14-7.01c1.72,0,2.98,.61,3.83,1.62v-1.25h3.85Zm-3.85,6.64c0-1.99-1.28-3.24-3.06-3.24s-3.06,1.25-3.06,3.24,1.28,3.24,3.06,3.24,3.06-1.25,3.06-3.24Z" fill="#fff"/><path d="M146.15,10.18h2.39v3.83h-2.39v9.46h-3.85V14.01h-1.72v-3.83h1.72c0-3.72,1.98-5.95,6.24-5.69v3.83c-1.44-.13-2.39,.32-2.39,1.86Z" fill="#fff"/><path d="M156.45,14.01v4.7c0,1.14,.95,1.25,2.65,1.14v3.61c-5.03,.53-6.5-1.04-6.5-4.76v-4.7h-2.05v-3.83h2.05v-2.52l3.85-1.2v3.72h2.65v3.83h-2.65Z" fill="#fff"/></g><g><path d="M9.99,11.12l.02,.02,.19,.11,5.37,3.19h.01s.08,.04,.12,.05V2.78h-.01l-.02-.02-1.6-.9L10.95,.1s-.03-.01-.04-.02c-.01,0-.03-.01-.04-.02-.02,0-.05-.02-.07-.03h0c-.09-.02-.18-.04-.27-.04-.54,0-.97,.43-.97,.97h0l-.02,9.32h0c0,.36,.19,.66,.47,.83Z" fill="#fff"/><path d="M16.55,14.42h.01l4.8-2.86,.78-.44h0c.27-.17,.45-.47,.45-.81h0v-.02h0l-.02-9.32h0v-.04h0c-.02-.52-.44-.93-.97-.93-.08,0-.15,.01-.22,.03h0s-.04,.01-.07,.02c-.03,.01-.07,.02-.1,.04-.01,0-.03,0-.04,.01l-3.24,1.82-1.53,.86V14.49s.1-.04,.15-.06Z" fill="#fff"/><path d="M31.8,16.87h0l-8.13-4.61h0c-.14-.07-.3-.12-.46-.12s-.32,.05-.46,.12h0l-.07,.04h0l-.33,.2-5.11,3.03h0c-.05,.04-.1,.08-.14,.12l10.01,5.75,1.01-.62,3.77-2.28s.09-.07,.12-.11c.01-.01,.03-.03,.04-.04l.03-.03c.14-.17,.24-.39,.24-.63,0-.36-.2-.67-.49-.84Z" fill="#fff"/><path d="M16.76,16.28s-.01,.07-.01,.1h0v1.41h0v5.02h0c0,.36,.2,.67,.49,.83h0l8.12,4.56h0c.14,.08,.3,.13,.48,.13,.51,0,.92-.39,.96-.88,0-.01,0-.03,0-.04v-.04h0v-4.6l.02-.69-.04-.02-10.04-5.77Z" fill="#fff"/><path d="M15.07,15.55h0l-5.11-3.04-.33-.2h0l-.07-.04h0c-.14-.07-.29-.12-.46-.12s-.33,.05-.46,.12h0L.49,16.87h0c-.29,.17-.49,.48-.49,.84,0,.24,.09,.46,.24,.63l.03,.03s.03,.03,.04,.04c.04,.04,.08,.07,.12,.11l3.77,2.28,.91,.55,10.11-5.69s-.09-.09-.14-.12Z" fill="#fff"/><path d="M5.46,22.75v4.59h0v.06s0,.03,0,.04c.05,.49,.46,.88,.96,.88,.17,0,.34-.05,.48-.13h0l8.12-4.55h0c.29-.17,.49-.48,.49-.84h0v-5.02h0v-1.4h0s0-.07-.01-.1l-10.09,5.67,.02,.81Z" fill="#fff"/></g></svg>