<?xml version="1.0" encoding="UTF-8"?><svg id="a" xmlns="http://www.w3.org/2000/svg" viewBox="0 0 197.26 22.41"><g><path d="M29.95,13.37l2.8-1.68c.51,1.22,1.38,2.04,2.99,2.04s1.93-.63,1.93-1.2c0-.9-.81-1.26-2.95-1.87-2.11-.61-4.19-1.66-4.19-4.48s2.32-4.48,4.78-4.48,4.17,1.16,5.2,3.32l-2.74,1.66c-.49-1.05-1.16-1.7-2.46-1.7-1.02,0-1.52,.53-1.52,1.11,0,.67,.35,1.14,2.56,1.83,2.15,.67,4.57,1.45,4.57,4.56,0,2.84-2.19,4.52-5.28,4.52s-4.9-1.47-5.69-3.64Z" fill="#fff"/><path d="M52.06,6.2v10.51h-3.05v-.99c-.55,.78-1.56,1.28-2.91,1.28-2.05,0-3.8-1.51-3.8-4.35V6.2h3.05v5.99c0,1.3,.79,1.91,1.77,1.91,1.12,0,1.89-.67,1.89-2.17V6.2h3.05Z" fill="#fff"/><path d="M65.23,11.46c0,3.13-2.19,5.55-4.86,5.55-1.36,0-2.36-.48-3.03-1.28v5.19h-3.05V6.2h3.05v.99c.67-.8,1.67-1.28,3.03-1.28,2.66,0,4.86,2.42,4.86,5.55Zm-3.05,0c0-1.58-1.02-2.57-2.42-2.57s-2.42,.99-2.42,2.57,1.02,2.57,2.42,2.57,2.42-.99,2.42-2.57Z" fill="#fff"/><path d="M72.12,14.19c.83,0,1.54-.34,1.95-.8l2.44,1.45c-1,1.43-2.5,2.17-4.43,2.17-3.47,0-5.63-2.42-5.63-5.55s2.19-5.55,5.41-5.55c2.97,0,5.16,2.38,5.16,5.55,0,.44-.04,.86-.12,1.26h-7.21c.39,1.09,1.32,1.47,2.44,1.47Zm1.87-3.83c-.32-1.22-1.24-1.66-2.15-1.66-1.16,0-1.93,.59-2.21,1.66h4.37Z" fill="#fff"/><path d="M84.84,5.99v3.57c-1.26-.21-3.05,.32-3.05,2.4v4.75h-3.05V6.2h3.05v1.87c.41-1.41,1.77-2.08,3.05-2.08Z" fill="#fff"/><path d="M105.53,9.78c0,4.5-3.03,7.23-7.01,7.23-4.47,0-7.68-3.41-7.68-7.63s3.27-7.68,7.46-7.68c2.72,0,5.02,1.39,6.22,3.36l-2.76,1.64c-.59-.97-1.87-1.72-3.47-1.72-2.4,0-4.19,1.83-4.19,4.42s1.71,4.33,4.47,4.33c1.89,0,3.13-.86,3.64-2.27h-3.8v-2.94h7.13v1.26Z" fill="#fff"/><path d="M112.42,14.19c.83,0,1.54-.34,1.95-.8l2.44,1.45c-1,1.43-2.5,2.17-4.43,2.17-3.47,0-5.63-2.42-5.63-5.55s2.19-5.55,5.41-5.55c2.97,0,5.16,2.38,5.16,5.55,0,.44-.04,.86-.12,1.26h-7.21c.39,1.09,1.32,1.47,2.44,1.47Zm1.87-3.83c-.32-1.22-1.24-1.66-2.15-1.66-1.16,0-1.93,.59-2.21,1.66h4.37Z" fill="#fff"/><path d="M128.8,10.26v6.46h-3.05v-5.99c0-1.3-.79-1.91-1.77-1.91-1.12,0-1.89,.67-1.89,2.17v5.74h-3.05V6.2h3.05v.99c.55-.78,1.56-1.28,2.91-1.28,2.05,0,3.8,1.51,3.8,4.35Z" fill="#fff"/><path d="M136.05,14.19c.83,0,1.54-.34,1.95-.8l2.44,1.45c-1,1.43-2.5,2.17-4.43,2.17-3.47,0-5.63-2.42-5.63-5.55s2.19-5.55,5.41-5.55c2.97,0,5.16,2.38,5.16,5.55,0,.44-.04,.86-.12,1.26h-7.21c.39,1.09,1.32,1.47,2.44,1.47Zm1.87-3.83c-.32-1.22-1.24-1.66-2.15-1.66-1.16,0-1.93,.59-2.21,1.66h4.37Z" fill="#fff"/><path d="M148.78,5.99v3.57c-1.26-.21-3.05,.32-3.05,2.4v4.75h-3.05V6.2h3.05v1.87c.41-1.41,1.77-2.08,3.05-2.08Z" fill="#fff"/><path d="M160.32,6.2v10.51h-3.05v-.99c-.67,.8-1.67,1.28-3.03,1.28-2.66,0-4.86-2.42-4.86-5.55s2.19-5.55,4.86-5.55c1.36,0,2.36,.48,3.03,1.28v-.99h3.05Zm-3.05,5.26c0-1.58-1.02-2.57-2.42-2.57s-2.42,.99-2.42,2.57,1.02,2.57,2.42,2.57,2.42-.99,2.42-2.57Z" fill="#fff"/><path d="M166.41,9.23v3.72c0,.9,.75,.99,2.09,.9v2.86c-3.98,.42-5.14-.82-5.14-3.76v-3.72h-1.63v-3.03h1.63v-2l3.05-.95v2.94h2.09v3.03h-2.09Z" fill="#fff"/><path d="M169.93,3.38c0-1.03,.83-1.89,1.83-1.89s1.83,.86,1.83,1.89-.83,1.89-1.83,1.89-1.83-.86-1.83-1.89Zm.3,2.82h3.05v10.51h-3.05V6.2Z" fill="#fff"/><path d="M175.01,11.46c0-3.13,2.4-5.55,5.38-5.55s5.38,2.42,5.38,5.55-2.4,5.55-5.38,5.55-5.38-2.42-5.38-5.55Zm7.72,0c0-1.49-1.02-2.48-2.34-2.48s-2.34,.99-2.34,2.48,1.02,2.48,2.34,2.48,2.34-.99,2.34-2.48Z" fill="#fff"/><path d="M197.26,10.26v6.46h-3.05v-5.99c0-1.3-.79-1.91-1.77-1.91-1.12,0-1.89,.67-1.89,2.17v5.74h-3.05V6.2h3.05v.99c.55-.78,1.56-1.28,2.91-1.28,2.05,0,3.8,1.51,3.8,4.35Z" fill="#fff"/></g><g><path d="M7.9,8.8h.02l.15,.1,4.25,2.52h0s.07,.03,.1,.04V2.2h0l-.02-.02-1.26-.71L8.66,.08s-.02,0-.03-.01c-.01,0-.02,0-.03-.01-.02,0-.04-.02-.06-.02h0c-.07-.02-.14-.03-.21-.03-.42,0-.77,.34-.77,.77h0l-.02,7.37h0c0,.28,.15,.52,.37,.66Z" fill="#fff"/><path d="M13.09,11.41h0l3.8-2.27,.62-.35h0c.21-.14,.35-.37,.36-.64h0v-.02h0l-.02-7.37h0v-.04h0c-.02-.41-.35-.74-.77-.74-.06,0-.12,0-.18,.02h0s-.04,.01-.05,.02c-.03,0-.06,.02-.08,.03-.01,0-.02,0-.03,.01l-2.56,1.44-1.21,.68V11.46s.08-.03,.11-.05Z" fill="#fff"/><path d="M25.17,13.35h0l-6.43-3.65h0c-.11-.06-.23-.1-.37-.1s-.26,.04-.36,.1h0l-.06,.03h0l-.26,.16-4.04,2.4h0s-.08,.06-.11,.1l7.92,4.55,.8-.49,2.98-1.81s.07-.05,.1-.08c.01-.01,.02-.02,.03-.03l.02-.03c.11-.13,.19-.31,.19-.5,0-.28-.16-.53-.39-.66Z" fill="#fff"/><path d="M13.27,12.88s-.01,.05-.01,.08h0v1.11h0v3.97h0c0,.28,.16,.53,.39,.66h0l6.43,3.6h0c.11,.06,.24,.1,.38,.1,.4,0,.72-.31,.76-.7,0-.01,0-.02,0-.03v-.03h0v-4.18l-.02-.02-7.95-4.56Z" fill="#fff"/><path d="M11.93,12.3h0l-4.04-2.4-.26-.16h0l-.06-.04h0c-.11-.06-.23-.1-.36-.1s-.26,.04-.37,.1h0L.39,13.35h0c-.23,.14-.39,.38-.39,.67,0,.19,.07,.36,.19,.5l.02,.03s.02,.02,.03,.03c.03,.03,.06,.06,.1,.08l2.98,1.81,.72,.44,8-4.5s-.07-.07-.11-.09Z" fill="#fff"/><path d="M4.32,18.01v3.63h0v.05s0,.02,0,.03c.04,.39,.36,.7,.76,.7,.14,0,.27-.04,.38-.1h0l6.43-3.6h0c.23-.14,.39-.38,.39-.66h0v-3.97h0v-1.11h0s0-.05-.01-.08l-7.98,4.49,.02,.64Z" fill="#fff"/></g></svg>