<?xml version="1.0" encoding="UTF-8"?><svg id="a" xmlns="http://www.w3.org/2000/svg" viewBox="0 0 199.28 22.74"><path d="M40.15,15.24v3.26h-9.32V3.68h9.22v3.26h-5.83v2.46h5.3v3.22h-5.3v2.63h5.93Z" fill="#fff"/><path d="M49.1,18.5l-1.97-2.8-1.97,2.8h-3.64l3.79-5.38-3.66-5.21h3.64l1.84,2.63,1.84-2.63h3.64l-3.66,5.21,3.79,5.38h-3.64Z" fill="#fff"/><path d="M64.04,7.91v10.59h-3.18v-1c-.7,.81-1.74,1.29-3.16,1.29-2.78,0-5.06-2.44-5.06-5.59s2.29-5.59,5.06-5.59c1.42,0,2.46,.49,3.16,1.29v-1h3.18Zm-3.26,5.3c0-1.5-1.06-2.5-2.44-2.5s-2.44,1-2.44,2.5,1.06,2.5,2.44,2.5,2.44-1,2.44-2.5Z" fill="#fff"/><path d="M81.89,12v6.5h-3.18v-6.23c0-1.06-.51-1.74-1.53-1.74s-1.65,.74-1.65,1.99v5.97h-3.18v-6.23c0-1.06-.51-1.74-1.53-1.74s-1.65,.74-1.65,1.99v5.97h-3.18V7.91h3.18v.97c.49-.72,1.42-1.27,2.84-1.27,1.25,0,2.18,.51,2.78,1.4,.59-.85,1.57-1.4,3.07-1.4,2.44,0,4.03,1.74,4.03,4.39Z" fill="#fff"/><path d="M83.48,13.21c0-3.16,2.39-5.59,5.61-5.59,2.05,0,3.88,1.08,4.79,2.71l-2.78,1.61c-.36-.74-1.12-1.19-2.05-1.19-1.38,0-2.39,1-2.39,2.46s1.02,2.46,2.39,2.46c.93,0,1.72-.44,2.05-1.19l2.78,1.59c-.91,1.65-2.71,2.73-4.79,2.73-3.22,0-5.61-2.44-5.61-5.59Z" fill="#fff"/><path d="M101.83,7.7v3.6c-1.31-.21-3.18,.32-3.18,2.41v4.79h-3.18V7.91h3.18v1.89c.42-1.42,1.84-2.1,3.18-2.1Z" fill="#fff"/><path d="M114.45,7.91v10.59h-3.18v-1c-.7,.81-1.74,1.29-3.16,1.29-2.78,0-5.06-2.44-5.06-5.59s2.29-5.59,5.06-5.59c1.42,0,2.46,.49,3.16,1.29v-1h3.18Zm-3.26,5.3c0-1.5-1.06-2.5-2.44-2.5s-2.44,1-2.44,2.5,1.06,2.5,2.44,2.5,2.44-1,2.44-2.5Z" fill="#fff"/><path d="M120.64,7.91h1.97v3.05h-1.97v7.54h-3.18v-7.54h-1.42v-3.05h1.42c0-2.97,1.63-4.74,5.15-4.53v3.05c-1.19-.11-1.97,.25-1.97,1.48Z" fill="#fff"/><path d="M129.08,10.96v3.75c0,.91,.78,1,2.18,.91v2.88c-4.15,.42-5.36-.83-5.36-3.79v-3.75h-1.69v-3.05h1.69v-2.01l3.18-.95v2.97h2.18v3.05h-2.18Z" fill="#fff"/><path d="M153.35,11.51c0,4.53-3.16,7.29-7.31,7.29-4.66,0-8.01-3.43-8.01-7.69s3.41-7.73,7.77-7.73c2.84,0,5.23,1.4,6.48,3.39l-2.88,1.65c-.61-.97-1.95-1.74-3.62-1.74-2.5,0-4.36,1.84-4.36,4.45s1.78,4.36,4.66,4.36c1.97,0,3.26-.87,3.79-2.29h-3.96v-2.97h7.44v1.27Z" fill="#fff"/><path d="M161.51,7.7v3.6c-1.31-.21-3.18,.32-3.18,2.41v4.79h-3.18V7.91h3.18v1.89c.42-1.42,1.84-2.1,3.18-2.1Z" fill="#fff"/><path d="M162.51,13.21c0-3.16,2.5-5.59,5.61-5.59s5.61,2.44,5.61,5.59-2.5,5.59-5.61,5.59-5.61-2.44-5.61-5.59Zm8.05,0c0-1.5-1.06-2.5-2.44-2.5s-2.44,1-2.44,2.5,1.06,2.5,2.44,2.5,2.44-1,2.44-2.5Z" fill="#fff"/><path d="M199.28,13.21c0,3.16-2.29,5.59-5.06,5.59-1.42,0-2.46-.49-3.16-1.29v5.23h-3.18V7.91h3.18v1c.7-.8,1.74-1.29,3.16-1.29,2.78,0,5.06,2.44,5.06,5.59Zm-3.26,0c0-1.5-1.06-2.5-2.44-2.5s-2.44,1-2.44,2.5,1.06,2.5,2.44,2.5,2.44-1,2.44-2.5Z" fill="#fff"/><path d="M175.14,13.45V7.86h3.75v5.9c0,.47,.15,.85,.45,1.14,.3,.3,.68,.45,1.14,.45s.82-.15,1.12-.45,.45-.68,.45-1.14V7.86h3.75v5.59c0,1.58-.5,2.87-1.49,3.86-1,.99-2.27,1.48-3.82,1.48s-2.83-.49-3.83-1.48c-1-.99-1.5-2.27-1.5-3.86Z" fill="#fff"/><path d="M7.82,8.71h.02s.15,.1,.15,.1l4.21,2.5h0s.06,.03,.1,.04V2.18h0s-.01-.01-.02-.02l-1.25-.7L8.57,.08s-.02,0-.03-.01c-.01,0-.02,0-.03-.01-.02,0-.04-.02-.06-.02,0,0,0,0,0,0-.07-.02-.14-.03-.21-.03-.42,0-.76,.34-.76,.76,0,0,0,0,0,0h0l-.02,7.3s0,0,0,0c0,.28,.15,.51,.37,.65Z" fill="#fff"/><path d="M12.96,11.3h0s3.76-2.24,3.76-2.24l.61-.35s0,0,0,0c.21-.13,.35-.36,.36-.63h0s0-.01,0-.01c0,0,0,0,0,0,0,0,0,0,0,0l-.02-7.3s0,0,0,0,0,0,0,0v-.03h0c-.02-.4-.35-.73-.76-.73-.06,0-.12,0-.18,.02,0,0,0,0,0,0-.02,0-.03,.01-.05,.02-.03,0-.05,.02-.08,.03-.01,0-.02,0-.03,.01l-2.54,1.43-1.2,.67V11.35s.08-.03,.11-.05Z" fill="#fff"/><path d="M24.91,13.22h0s-6.36-3.61-6.36-3.61h0c-.11-.06-.23-.1-.36-.1s-.25,.04-.36,.09h0l-.06,.03s0,0,0,0l-.26,.16-4,2.37h0s-.08,.06-.11,.1l7.84,4.5,.79-.48,2.95-1.79s.07-.05,.1-.08c.01-.01,.02-.02,.03-.03,0,0,.01-.02,.02-.02,.11-.13,.18-.3,.18-.49,0-.28-.16-.53-.38-.66Z" fill="#fff"/><path d="M13.13,12.75s-.01,.05-.01,.08h0v1.1h0s0,3.93,0,3.93h0c0,.28,.16,.52,.38,.65h0s6.36,3.57,6.36,3.57c0,0,0,0,0,0,.11,.06,.24,.1,.37,.1,.4,0,.72-.3,.75-.69,0-.01,0-.02,0-.03v-.03s0,0,0,0c0,0,0,0,0,0v-3.59s.01-.54,.01-.54l-.03-.02-7.87-4.52Z" fill="#fff"/><path d="M11.8,12.18h0s-4-2.38-4-2.38l-.26-.16s0,0,0,0l-.06-.03h0c-.11-.06-.23-.09-.36-.09s-.26,.04-.36,.1h0S.38,13.21,.38,13.21h0c-.23,.13-.38,.38-.38,.66,0,.19,.07,.36,.18,.49,0,0,.01,.02,.02,.02,.01,.01,.02,.02,.03,.03,.03,.03,.06,.06,.1,.08l2.95,1.79,.71,.43,7.92-4.45s-.07-.07-.11-.09Z" fill="#fff"/><path d="M4.28,17.82v3.59s0,0,0,0c0,0,0,0,0,0v.03s0,.02,0,.03c.04,.39,.36,.69,.75,.69,.14,0,.26-.04,.37-.1,0,0,0,0,0,0l6.36-3.56h0c.23-.14,.38-.38,.38-.66h0s0-3.93,0-3.93h0s0-1.1,0-1.1h0s0-.05-.01-.08l-7.9,4.44,.02,.63Z" fill="#fff"/></svg>