<?xml version="1.0" encoding="UTF-8"?>
<svg width="833px" height="260px" viewBox="0 0 833 260" version="1.1" xmlns="http://www.w3.org/2000/svg" xmlns:xlink="http://www.w3.org/1999/xlink">
    <!-- Generator: Sketch 50.2 (55047) - http://www.bohemiancoding.com/sketch -->
    <title>Shape</title>
    <desc>Created with Sketch.</desc>
    <defs></defs>
    <g id="Page-1" stroke="none" stroke-width="1" fill="none" fill-rule="evenodd">
        <path d="M27.801,163.284 C34.771,189.546 50.076,213.289 71.319,230.614 C94.361,249.406 123.415,259.756 153.128,259.756 C175.707,259.756 197.953,253.852 217.462,242.682 C232.374,234.143 245.529,222.607 256.001,208.979 C266.473,222.608 279.627,234.144 294.539,242.682 C314.048,253.852 336.294,259.756 358.873,259.756 C418.769,259.756 469.299,218.919 484.103,163.628 L578.538086,163.628 C584.061086,163.628 592.255859,162.385742 595.5,153.628 L605.5,108.628 C605.5,103.105 601.023,98.628 595.5,98.628 L484.622,98.628 C470.513,42.324 419.489,0.5 358.872,0.5 C336.293,0.5 314.047,6.40401 294.538,17.574 C279.629,26.11 266.472,37.652 255.999,51.282 C245.532,37.651 232.408,26.132 217.461,17.574 C197.952,6.40401 175.706,0.5 153.127,0.5 C93.5011,0.5 41.434,41.625 27.266,99.055 C11.826,101.566 0,114.989 0,131.128 C0,147.453 12.1,161 27.801,163.284 Z M487.174,148.628 L580.5,148.628 L590.5,113.628 L487.455,113.628 C488.144,119.032 488.5,124.539 488.5,130.128 C488.5,136.409 488.042,142.584 487.174,148.628 Z M249.688,191.915 C250.106,191.263 250.518,190.606 250.922,189.945 C259.444,176.039 273.913,165.601 293.929,158.922 C321.491,149.724 355.962,148.428 388.655,148.428 C395.212,148.428 401.693,148.48 408.038,148.531 C412.424,148.566 416.635,148.599 420.792,148.616 C422.545,142.755 423.5,136.552 423.5,130.128 C423.5,124.423 422.749,118.891 421.355,113.618 C417.23,113.602 413.015,113.569 408.619,113.534 C401.866,113.48 395.299,113.428 388.591,113.428 C363.315,113.428 333.825,114.146 306.739,119.47 C297.625,121.261 289.042,123.527 281.23,126.204 C264.342,131.991 250.655,139.685 239.386,149.726 C232.268,156.068 226.109,163.448 221.077,171.659 C206.46,195.515 181.059,209.756 153.127,209.756 C122.228,209.756 93.867,191.425 80.906,163.628 L43.506,163.628 C58.087,211.148 102.771,244.756 153.128,244.756 C173.097,244.756 192.766,239.537 210.009,229.664 C226.005,220.505 239.726,207.452 249.688,191.915 Z M98.1041,163.66 C109.525,182.624 130.487,194.756 153.127,194.756 C175.798,194.756 196.419,183.192 208.288,163.822 C210.137,160.805 212.133,157.897 214.241,155.081 C211.508,155.726 208.729,156.335 205.902,156.899 C170.493,163.958 132.528,163.802 99.0303,163.664 L98.1041,163.66 Z M303.711,96.434 C301.639,99.814 299.397,103.071 297.005,106.204 C299.254,105.692 301.534,105.206 303.846,104.751 C332.194,99.179 362.592,98.428 388.59,98.428 C395.393,98.428 402.024,98.48 408.436,98.532 C410.954,98.553 413.113,98.569 415.248,98.584 C404.169,78.862 383.057,65.5 358.872,65.5 C336.201,65.5 315.58,77.064 303.711,96.434 Z M358.872,194.755 C382.273,194.755 402.808,182.253 414.151,163.578 C412.1,163.564 410.033,163.548 407.917,163.531 C374.82,163.262 337.767,162.971 308.3,170.365 C311.738,174.706 315.676,178.576 320.093,181.898 C331.275,190.309 344.684,194.755 358.872,194.755 Z M358.872,15.5 C338.903,15.5 319.234,20.719 301.991,30.592 C287.342,38.98 274.601,50.646 264.909,64.486 C272.056,76.597 277.017,89.073 281.242,101.813 C284.807,97.692 288.051,93.28 290.922,88.596 C305.539,64.741 330.94,50.5 358.872,50.5 C402.779,50.5 438.5,86.221 438.5,130.128 C438.5,174.035 402.779,209.756 358.872,209.756 C341.406,209.756 324.879,204.269 311.076,193.887 C304.133,188.664 298.135,182.371 293.193,175.152 C280.286,180.254 270.996,187.065 264.968,195.852 C274.657,209.657 287.367,221.292 301.991,229.664 C319.234,239.537 338.903,244.756 358.872,244.756 C422.078,244.756 473.5,193.334 473.5,130.128 C473.5,66.922 422.078,15.5 358.872,15.5 Z M210.009,30.592 C192.766,20.719 173.097,15.5 153.128,15.5 C101.804,15.5 56.831,49.961 42.916,98.628 L80.008,98.628 C92.525,69.635 121.256,50.5 153.128,50.5 C181.059,50.5 206.461,64.742 221.078,88.596 C228.778,101.161 233.456,115.877 238.143,131.498 C247.325,124.793 257.832,119.103 269.559,114.512 C264.795,99.142 259.451,84.228 250.922,70.309 C240.861,53.89 226.713,40.156 210.009,30.592 Z M204.262,90.598 C192.06,74.768 173.417,65.5 153.128,65.5 C129.494,65.5 107.99,78.467 96.7001,98.655 L99.0101,98.664 C134.317,98.81 173.527,98.963 204.262,90.598 Z M670.519,99 L727.397,99 C732.92,99 737.397,103.477 737.397,109 L727.397,154 C724.152859,162.757742 715.958086,164 710.435086,164 L650,164 L635,164 C629.477,164 625,159.523 625,154 L635,109 C638.244141,100.242258 646.438914,99 651.961914,99 L670.519,99 Z M86,113.628 C90.1413,113.628 94.3777,113.645 99.287,113.665 C136.745,113.818 178.905,113.982 212.32,103.885 C217.027,113.655 220.533,124.977 224.094,136.871 C217.472,138.925 210.395,140.708 202.968,142.189 C169.039,148.953 131.872,148.801 99.05,148.665 L97.9492,148.66 C93.891,148.644 89.9015,148.629 85.999,148.629 L32.499,148.629 C22.85,148.629 14.999,140.778 14.999,131.129 C14.999,121.48 22.851,113.628 32.5,113.628 L86,113.628 Z M825.265239,99.4173929 C829.39031,100.650244 832.397,104.473882 832.397,109 L822.397,154 C819.152859,162.757742 810.958086,164 805.435086,164 L765,164 L764,164 C758.477,164 754,159.523 754,154 L764,109 C767.244141,100.242258 775.438914,99 780.961914,99 L825.397,99 L825.265239,99.4173929 Z M722.830078,114 L713.549078,149 L640,149 L650,114 L722.830078,114 Z M816.830078,114 L779,114 L769,149 L807.549078,149 L816.830078,114 Z" id="Shape" fill="#ffffff"></path>
    </g>
</svg>